<svg width="40" height="40" viewBox="0 0 40 40" fill="none" xmlns="http://www.w3.org/2000/svg">
<g id="ep:arrow-up-bold">
<path id="Vector" d="M35.9097 13.2317C35.4408 12.763 34.805 12.4998 34.1421 12.4998C33.4792 12.4998 32.8435 12.7632 32.3747 13.2319L20.0003 25.6075L7.62467 13.2331C7.15315 12.7778 6.52163 12.5258 5.86613 12.5315C5.21064 12.5373 4.58362 12.8002 4.12013 13.2638C3.65663 13.7273 3.39374 14.3543 3.38808 15.0098C3.38242 15.6653 3.63443 16.2968 4.08986 16.7683L18.2331 30.9101C18.7019 31.3787 19.3377 31.642 20.0006 31.642C20.6635 31.6419 21.2993 31.3786 21.7681 30.9099L35.9099 16.7667C36.3785 16.2978 36.6418 15.6621 36.6417 14.9991C36.6417 14.3362 36.3784 13.7005 35.9097 13.2317Z" fill="black"/>
</g>
</svg>
